<svg width="16" height="16" viewBox="0 0 16 16" fill="none" xmlns="http://www.w3.org/2000/svg">
<path d="M11.9732 10.1503C11.7265 10.0264 11.6032 9.96502 11.4772 9.95368C11.366 9.94394 11.2541 9.96228 11.1519 10.007C11.0359 10.057 10.9385 10.155 10.7432 10.3503L9.65985 11.4337C7.41064 10.4177 5.60919 8.61623 4.59318 6.36702L5.67852 5.28168C5.87318 5.08702 5.97052 4.98968 6.02052 4.87435C6.06514 4.77228 6.08348 4.66066 6.07385 4.54968C6.06318 4.42435 6.00185 4.30102 5.88052 4.05435L4.94518 2.16702C4.79852 1.87102 4.72518 1.72368 4.61185 1.63168C4.51218 1.55099 4.39135 1.50076 4.26385 1.48702C4.11918 1.47168 3.96318 1.52368 3.65052 1.62835L3.27918 1.75302C2.63685 1.98343 2.09691 2.43396 1.75519 3.02465C1.41347 3.61533 1.29206 4.30799 1.41252 4.97968C1.89905 7.34767 3.06787 9.52154 4.7749 11.2333C6.48193 12.9451 8.65255 14.1199 11.0192 14.613C11.6909 14.7335 12.3835 14.6121 12.9742 14.2703C13.5649 13.9286 14.0154 13.3887 14.2459 12.7463L14.3712 12.3724C14.4759 12.0604 14.5279 11.905 14.5125 11.7603C14.499 11.6329 14.449 11.5121 14.3685 11.4123C14.2772 11.299 14.1299 11.2257 13.8359 11.079L11.9732 10.1497V10.1503Z" fill="white"/>
</svg>
